# xmcd CD database file
#
# Track frame offsets:
#	150
#	9269
#	21805
#	30292
#	43391
#	54632
#	65877
#	79019
#	91786
#	104775
#
# Disc length: 1558 seconds
#
# Revision: 0
# Processed by: cddbd v1.4PL0 Copyright (c) Steve Scherf et al.
# Submitted via: CDex 1.50beta10
#
DISCID=7b06140a
DTITLE=Glen Barber - Close But No Cigar
DYEAR=1999
DGENRE=Country
TTITLE0=Love Rules The Heart
TTITLE1=Warm All Over Feelin'
TTITLE2=I Created A Monster
TTITLE3=You Can't Get Here From There
TTITLE4=Cheating
TTITLE5=Yes Dear There Is A Virginia
TTITLE6=April Fool
TTITLE7=We'll Take Our Last Walk Tonight
TTITLE8=Go Home Letter
TTITLE9=War Time Blues
EXTD=YEAR: 1999
EXTT0=
EXTT1=
EXTT2=
EXTT3=
EXTT4=
EXTT5=
EXTT6=
EXTT7=
EXTT8=
EXTT9=
PLAYORDER=
